<svg width="156" height="32" viewBox="0 0 156 32" fill="none" xmlns="http://www.w3.org/2000/svg">
<path d="M18.4312 10.3268L19.6589 1.59608H16.9579L17.1625 0.1637H24.1197L23.9151 1.59608H21.255L20.0409 10.3268H18.4312Z" fill="white"/>
<path d="M23.495 10.3268L24.941 0H26.4689L25.855 4.39262L25.6367 4.16072C25.8732 3.6969 26.2006 3.35131 26.6189 3.12395C27.0464 2.89659 27.5193 2.78291 28.0377 2.78291C28.5833 2.78291 29.0517 2.91023 29.4428 3.16487C29.8429 3.41952 30.134 3.76965 30.3158 4.21528C30.5068 4.66091 30.5614 5.16565 30.4795 5.72951L29.8384 10.3268H28.2969L28.9107 5.89321C28.9835 5.38392 28.8926 4.97922 28.6379 4.6791C28.3833 4.36989 28.0195 4.21528 27.5466 4.21528C27.2283 4.21528 26.9327 4.28804 26.6599 4.43355C26.387 4.57906 26.1597 4.78369 25.9778 5.04743C25.805 5.31117 25.6913 5.62492 25.6367 5.9887L25.0365 10.3268H23.495Z" fill="white"/>
<path d="M34.9938 10.4905C34.2844 10.4905 33.6614 10.3359 33.1249 10.0266C32.5974 9.70834 32.1836 9.27635 31.8835 8.73068C31.5924 8.18502 31.4469 7.57114 31.4469 6.88905C31.4469 6.3252 31.5424 5.79772 31.7334 5.30662C31.9335 4.80642 32.2063 4.36989 32.5519 3.99702C32.9066 3.61505 33.3158 3.31948 33.7797 3.11031C34.2526 2.89204 34.7664 2.78291 35.3212 2.78291C36.0396 2.78291 36.6444 2.93296 37.1355 3.23308C37.6357 3.5332 38.0131 3.9379 38.2678 4.44719C38.5224 4.94739 38.6497 5.4976 38.6497 6.09784C38.6497 6.25244 38.6361 6.41614 38.6088 6.58894C38.5815 6.76173 38.5543 6.92543 38.527 7.08004H32.6338L32.7292 5.85229H37.7358L36.9582 6.38431C37.0855 5.95687 37.09 5.57036 36.9718 5.22477C36.8536 4.87008 36.649 4.5927 36.3579 4.39262C36.0669 4.18345 35.7168 4.07887 35.3075 4.07887C34.7891 4.07887 34.3617 4.21074 34.0252 4.47448C33.6887 4.72912 33.4386 5.07926 33.2749 5.52489C33.1112 5.97051 33.0294 6.4798 33.0294 7.05275C33.0294 7.4802 33.1158 7.85307 33.2886 8.17137C33.4614 8.48059 33.6978 8.71704 33.9979 8.88074C34.298 9.04444 34.6391 9.12629 35.0211 9.12629C35.4758 9.12629 35.8668 9.02171 36.1942 8.81253C36.5307 8.60336 36.8036 8.33962 37.0127 8.02131L38.2405 8.68976C38.0677 9.03535 37.8176 9.34456 37.4902 9.61739C37.1719 9.89023 36.799 10.1039 36.3716 10.2586C35.9441 10.4132 35.4849 10.4905 34.9938 10.4905Z" fill="white"/>
<path d="M0 31.6419L10.9219 9.41021H15.2787L19.9936 31.6419H16.353L15.3682 26.6584H6.35618L3.93904 31.6419H0ZM7.81839 23.5251H14.7416L12.4139 11.9169L13.3987 12.0362L7.81839 23.5251Z" fill="white"/>
<path d="M21.7358 31.6419L23.9739 15.4978H27.1968L26.7491 18.8699L26.391 18.3327C26.9282 17.2386 27.6344 16.4328 28.5098 15.9156C29.405 15.3983 30.4097 15.1397 31.5237 15.1397C32.8169 15.1397 33.921 15.4879 34.8361 16.1842C35.7512 16.8606 36.3481 17.7856 36.6266 18.9594L35.5225 18.9892C36.1591 17.6563 37.0245 16.6815 38.1186 16.0648C39.2327 15.4481 40.4164 15.1397 41.6697 15.1397C42.8435 15.1397 43.8481 15.4083 44.6837 15.9454C45.5392 16.4826 46.1758 17.2286 46.5935 18.1835C47.0113 19.1185 47.1307 20.2028 46.9516 21.4362L45.5193 31.6419H42.177L43.5199 21.9435C43.6194 21.1875 43.5597 20.541 43.3408 20.0038C43.1419 19.4468 42.8137 19.0191 42.3561 18.7207C41.9184 18.4223 41.3614 18.273 40.685 18.273C40.0285 18.273 39.4118 18.4223 38.8348 18.7207C38.2579 19.0191 37.7705 19.4468 37.3726 20.0038C36.9946 20.541 36.7559 21.1875 36.6564 21.9435L35.3136 31.6419H31.9415L33.2844 21.9435C33.4037 21.1875 33.354 20.541 33.1352 20.0038C32.9362 19.4468 32.608 19.0191 32.1504 18.7207C31.6928 18.4223 31.1258 18.273 30.4494 18.273C29.773 18.273 29.1464 18.4322 28.5695 18.7505C27.9925 19.0688 27.5151 19.5164 27.1371 20.0934C26.7591 20.6703 26.5104 21.3566 26.391 22.1524L25.078 31.6419H21.7358Z" fill="white"/>
<path d="M53.7836 32C52.7889 32 51.8937 31.8408 51.0979 31.5225C50.3022 31.1843 49.6656 30.687 49.1881 30.0305C48.7305 29.374 48.5017 28.5583 48.5017 27.5835C48.5017 26.6087 48.7504 25.7532 49.2478 25.0172C49.7451 24.2811 50.4414 23.6843 51.3367 23.2267C52.2319 22.7492 53.2664 22.421 54.4401 22.2419L60.2293 21.3169L59.9608 23.9727L54.9773 24.8381C54.1019 24.9973 53.3858 25.2957 52.8287 25.7333C52.2916 26.1511 52.023 26.7082 52.023 27.4045C52.023 28.0212 52.2418 28.4986 52.6795 28.8368C53.1371 29.175 53.7339 29.3441 54.47 29.3441C55.3453 29.3441 56.1311 29.1452 56.8274 28.7473C57.5237 28.3295 58.1007 27.7824 58.5582 27.106C59.0357 26.4097 59.3242 25.6538 59.4236 24.8381L59.9608 20.8991C60.0403 20.2824 59.9409 19.7651 59.6624 19.3473C59.4037 18.9296 59.0357 18.6112 58.5582 18.3924C58.0808 18.1736 57.5536 18.0642 56.9766 18.0642C56.0416 18.0642 55.2061 18.3128 54.47 18.8102C53.7538 19.2876 53.1968 19.9044 52.7989 20.6603L50.0833 19.1086C50.4812 18.3128 51.0382 17.6165 51.7544 17.0197C52.4706 16.4229 53.2962 15.9653 54.2313 15.647C55.1663 15.3088 56.151 15.1397 57.1855 15.1397C58.4588 15.1397 59.5828 15.3884 60.5576 15.8858C61.5324 16.3831 62.2784 17.0794 62.7957 17.9746C63.3129 18.85 63.492 19.8745 63.3328 21.0483L61.8408 31.6419H58.6179L59.0058 28.7175L59.8116 28.8667C59.354 29.5431 58.8169 30.12 58.2001 30.5975C57.5834 31.055 56.8971 31.4032 56.1411 31.6419C55.405 31.8806 54.6192 32 53.7836 32Z" fill="white"/>
<path d="M65.2165 31.6419L68.3797 9.05212H71.7518L68.5886 31.6419H65.2165Z" fill="white"/>
<path d="M77.1857 32C76.191 32 75.2957 31.8408 74.5 31.5225C73.7042 31.1843 73.0676 30.687 72.5901 30.0305C72.1326 29.374 71.9038 28.5583 71.9038 27.5835C71.9038 26.6087 72.1525 25.7532 72.6498 25.0172C73.1472 24.2811 73.8435 23.6843 74.7387 23.2267C75.6339 22.7492 76.6684 22.421 77.8422 22.2419L83.6314 21.3169L83.3628 23.9727L78.3793 24.8381C77.504 24.9973 76.7878 25.2957 76.2308 25.7333C75.6936 26.1511 75.425 26.7082 75.425 27.4045C75.425 28.0212 75.6439 28.4986 76.0815 28.8368C76.5391 29.175 77.1359 29.3441 77.872 29.3441C78.7474 29.3441 79.5332 29.1452 80.2295 28.7473C80.9258 28.3295 81.5027 27.7824 81.9603 27.106C82.4377 26.4097 82.7262 25.6538 82.8256 24.8381L83.3628 20.8991C83.4424 20.2824 83.3429 19.7651 83.0644 19.3473C82.8058 18.9296 82.4377 18.6112 81.9603 18.3924C81.4828 18.1736 80.9556 18.0642 80.3787 18.0642C79.4436 18.0642 78.6081 18.3128 77.872 18.8102C77.1558 19.2876 76.5988 19.9044 76.2009 20.6603L73.4854 19.1086C73.8832 18.3128 74.4403 17.6165 75.1565 17.0197C75.8727 16.4229 76.6983 15.9653 77.6333 15.647C78.5683 15.3088 79.5531 15.1397 80.5876 15.1397C81.8608 15.1397 82.9848 15.3884 83.9596 15.8858C84.9344 16.3831 85.6805 17.0794 86.1977 17.9746C86.715 18.85 86.894 19.8745 86.7348 21.0483L85.2428 31.6419H82.0199L82.4079 28.7175L83.2136 28.8667C82.756 29.5431 82.2189 30.12 81.6022 30.5975C80.9854 31.055 80.2991 31.4032 79.5431 31.6419C78.807 31.8806 78.0212 32 77.1857 32Z" fill="white"/>
<path d="M90.7068 31.6419L91.1544 28.3594H92.2586C93.2931 28.3594 94.1684 28.0709 94.8846 27.494C95.6008 26.8972 96.0185 26.1014 96.1379 25.1067L98.3462 9.41021H101.867L99.5995 25.4349C99.4403 26.6286 99.0425 27.6929 98.4058 28.6279C97.7692 29.563 96.9337 30.2991 95.8992 30.8362C94.8647 31.3733 93.6511 31.6419 92.2586 31.6419H90.7068Z" fill="white"/>
<path d="M110.869 32C109.377 32 108.024 31.6618 106.811 30.9854C105.617 30.309 104.662 29.374 103.946 28.1803C103.23 26.9668 102.872 25.5841 102.872 24.0324C102.872 22.799 103.1 21.6451 103.558 20.5708C104.015 19.4766 104.652 18.5317 105.468 17.7359C106.303 16.9202 107.258 16.2836 108.332 15.8261C109.407 15.3685 110.561 15.1397 111.794 15.1397C113.306 15.1397 114.669 15.4779 115.882 16.1543C117.096 16.8307 118.051 17.7657 118.747 18.9594C119.443 20.1331 119.791 21.4959 119.791 23.0476C119.791 24.2811 119.563 25.4449 119.105 26.5391C118.648 27.6133 118.001 28.5683 117.165 29.4038C116.35 30.2195 115.405 30.8561 114.331 31.3137C113.256 31.7712 112.102 32 110.869 32ZM110.899 28.8667C111.933 28.8667 112.848 28.5981 113.644 28.061C114.46 27.5238 115.096 26.8176 115.554 25.9422C116.032 25.047 116.27 24.0722 116.27 23.0178C116.27 22.0828 116.081 21.2671 115.703 20.5708C115.325 19.8546 114.798 19.2976 114.122 18.8997C113.445 18.4819 112.669 18.273 111.794 18.273C110.76 18.273 109.834 18.5416 109.019 19.0788C108.203 19.596 107.557 20.2923 107.079 21.1676C106.622 22.043 106.393 23.0178 106.393 24.0921C106.393 25.0072 106.582 25.8229 106.96 26.5391C107.338 27.2552 107.865 27.8222 108.541 28.24C109.218 28.6578 110.004 28.8667 110.899 28.8667Z" fill="white"/>
<path d="M121.41 31.6419L123.648 15.4978H127.05L124.782 31.6419H121.41ZM123.976 13.2896L124.513 9.41021H127.885L127.348 13.2896H123.976Z" fill="white"/>
<path d="M128.157 31.6419L130.395 15.4978H133.618L133.2 18.661L132.842 18.1537C133.359 17.1391 134.075 16.3831 134.99 15.8858C135.925 15.3884 136.96 15.1397 138.094 15.1397C139.287 15.1397 140.312 15.4182 141.167 15.9753C142.043 16.5323 142.679 17.2982 143.077 18.273C143.495 19.2479 143.614 20.352 143.435 21.5854L142.033 31.6419H138.661L140.004 21.9435C140.163 20.8294 139.964 19.9442 139.407 19.2876C138.85 18.6112 138.054 18.273 137.019 18.273C136.323 18.273 135.677 18.4322 135.08 18.7505C134.483 19.0688 133.986 19.5164 133.588 20.0934C133.19 20.6703 132.931 21.3566 132.812 22.1524L131.499 31.6419H128.157Z" fill="white"/>
<path d="M152.176 31.821C150.445 31.821 149.162 31.3335 148.327 30.3587C147.511 29.364 147.223 28.0013 147.461 26.2705L148.536 18.5416H145.671L146.118 15.4978H146.477C147.232 15.4978 147.869 15.269 148.386 14.8115C148.904 14.334 149.212 13.7173 149.311 12.9613L149.49 11.7975H152.892L152.355 15.4978H155.996L155.548 18.5416H151.937L150.833 26.3003C150.754 26.8574 150.764 27.3249 150.863 27.7029C150.983 28.0809 151.211 28.3693 151.55 28.5683C151.888 28.7473 152.365 28.8368 152.982 28.8368C153.181 28.8368 153.37 28.8269 153.549 28.807C153.748 28.7871 153.957 28.7672 154.176 28.7473L153.907 31.6717C153.648 31.7314 153.35 31.7712 153.012 31.7911C152.693 31.811 152.415 31.821 152.176 31.821Z" fill="white"/>
</svg>
