<svg width="70" height="38" viewBox="0 0 70 38" fill="none" xmlns="http://www.w3.org/2000/svg">
<g filter="url(#filter0_d_795_2147)">
<rect x="3" y="2" width="62" height="24" rx="12" fill="#5A5A5A" shape-rendering="crispEdges"/>
<path d="M13.4038 20V8H14.9238L21.6118 17.294L20.8918 17.4067V8H22.7638V20H21.2438L14.6038 10.6416L15.2918 10.5128V20H13.4038Z" fill="white"/>
<path d="M11 11.9462H25V13.3556H11V11.9462Z" fill="white"/>
<path d="M11 15.9731H25V17.3825H11V15.9731Z" fill="white"/>
<path d="M29.4038 20V8H30.9238L37.6118 17.294L36.8918 17.4067V8H38.7638V20H37.2438L30.6038 10.6416L31.2918 10.5128V20H29.4038Z" fill="white"/>
<path d="M27 11.9462H41V13.3556H27V11.9462Z" fill="white"/>
<path d="M27 15.9731H41V17.3825H27V15.9731Z" fill="white"/>
<path d="M45.4038 20V8H46.9238L53.6118 17.294L52.8918 17.4067V8H54.7638V20H53.2438L46.6038 10.6416L47.2918 10.5128V20H45.4038Z" fill="white"/>
<path d="M43 11.9462H57V13.3556H43V11.9462Z" fill="white"/>
<path d="M43 15.9731H57V17.3825H43V15.9731Z" fill="white"/>
</g>
<path d="M35 38L28.0718 26L41.9282 26L35 38Z" fill="#5A5A5A"/>
<defs>
<filter id="filter0_d_795_2147" x="0" y="0" width="70" height="32" filterUnits="userSpaceOnUse" color-interpolation-filters="sRGB">
<feFlood flood-opacity="0" result="BackgroundImageFix"/>
<feColorMatrix in="SourceAlpha" type="matrix" values="0 0 0 0 0 0 0 0 0 0 0 0 0 0 0 0 0 0 127 0" result="hardAlpha"/>
<feOffset dx="1" dy="2"/>
<feGaussianBlur stdDeviation="2"/>
<feComposite in2="hardAlpha" operator="out"/>
<feColorMatrix type="matrix" values="0 0 0 0 1 0 0 0 0 1 0 0 0 0 1 0 0 0 0.08 0"/>
<feBlend mode="normal" in2="BackgroundImageFix" result="effect1_dropShadow_795_2147"/>
<feBlend mode="normal" in="SourceGraphic" in2="effect1_dropShadow_795_2147" result="shape"/>
</filter>
</defs>
</svg>
