<svg width="18" height="18" viewBox="0 0 18 18" fill="none" xmlns="http://www.w3.org/2000/svg">
<path d="M17.6295 14.8099L13.692 6.93492C13.6218 6.79489 13.5141 6.67713 13.3809 6.59483C13.2476 6.51254 13.0941 6.46895 12.9375 6.46895C12.7809 6.46895 12.6274 6.51254 12.4941 6.59483C12.3609 6.67713 12.2532 6.79489 12.183 6.93492L10.7402 9.81773C9.76821 9.73276 8.83225 9.40886 8.01562 8.87484C9.00798 7.7208 9.62874 6.294 9.79664 4.78125H11.25C11.4738 4.78125 11.6884 4.69236 11.8466 4.53412C12.0049 4.37589 12.0938 4.16128 12.0938 3.9375C12.0938 3.71372 12.0049 3.49911 11.8466 3.34088C11.6884 3.18264 11.4738 3.09375 11.25 3.09375H7.59375V2.25C7.59375 2.02622 7.50486 1.81161 7.34662 1.65338C7.18839 1.49514 6.97378 1.40625 6.75 1.40625C6.52622 1.40625 6.31161 1.49514 6.15338 1.65338C5.99514 1.81161 5.90625 2.02622 5.90625 2.25V3.09375H2.25C2.02622 3.09375 1.81161 3.18264 1.65338 3.34088C1.49514 3.49911 1.40625 3.71372 1.40625 3.9375C1.40625 4.16128 1.49514 4.37589 1.65338 4.53412C1.81161 4.69236 2.02622 4.78125 2.25 4.78125H8.09508C7.93681 5.8809 7.47047 6.91328 6.75 7.75898C6.39841 7.34756 6.10504 6.88976 5.87812 6.39844C5.83368 6.2951 5.76902 6.2017 5.68795 6.12372C5.60688 6.04574 5.51104 5.98476 5.40606 5.94436C5.30107 5.90396 5.18907 5.88496 5.07664 5.88847C4.96421 5.89199 4.85362 5.91796 4.75137 5.96484C4.64912 6.01172 4.55727 6.07858 4.48124 6.16147C4.4052 6.24437 4.34651 6.34163 4.30861 6.44754C4.27071 6.55345 4.25437 6.66587 4.26055 6.77819C4.26674 6.89051 4.29532 7.00045 4.34461 7.10156C4.63976 7.74346 5.02342 8.34083 5.48438 8.87625C4.52415 9.5083 3.39957 9.8447 2.25 9.84375C2.02622 9.84375 1.81161 9.93264 1.65338 10.0909C1.49514 10.2491 1.40625 10.4637 1.40625 10.6875C1.40625 10.9113 1.49514 11.1259 1.65338 11.2841C1.81161 11.4424 2.02622 11.5312 2.25 11.5312C3.87003 11.5326 5.44759 11.0132 6.75 10.0498C7.69451 10.7448 8.78667 11.2126 9.94148 11.4166L8.24484 14.8099C8.19211 14.9093 8.15979 15.0183 8.14978 15.1303C8.13978 15.2424 8.15229 15.3553 8.18658 15.4625C8.22087 15.5697 8.27624 15.6689 8.34945 15.7543C8.42266 15.8398 8.51222 15.9097 8.61285 15.96C8.71349 16.0104 8.82318 16.04 8.93546 16.0473C9.04774 16.0546 9.16034 16.0394 9.26665 16.0025C9.37295 15.9657 9.47081 15.9079 9.55446 15.8327C9.63812 15.7574 9.70587 15.6662 9.75375 15.5644L10.646 13.7812H15.2283L16.1198 15.5644C16.2199 15.7646 16.3954 15.9168 16.6077 15.9876C16.82 16.0584 17.0517 16.042 17.2519 15.942C17.4521 15.8419 17.6043 15.6664 17.6751 15.4541C17.7459 15.2418 17.7295 15.0101 17.6295 14.8099ZM11.4898 12.0938L12.9375 9.19898L14.3845 12.0938H11.4898Z" fill="white"/>
</svg>
